<svg xmlns="http://www.w3.org/2000/svg" fill="none" viewBox="0 0 100 100" height="100" width="100" id="Abstract-Avatar-17-Circle--Streamline-Abstract.svg"><desc>Abstract Avatar 17 Circle Streamline Emoji: https://streamlinehq.com</desc><g clip-path="url(#a)" id="Abstract-Avatar-17-Circle--Streamline-Abstract.svg"><path fill="#fafafa" d="M0.13528265107212473 0.05477582846003899h99.80506822612085v99.80506822612085h-99.80506822612085z" stroke-width="1"></path><path fill="#ffa8af" d="M58.73040935672514 28.89239766081871c0 -4.760428849902533 -3.85906432748538 -8.619493177387914 -8.619493177387914 -8.619493177387914 -4.760428849902533 0 -8.619493177387914 3.85906432748538 -8.619493177387914 8.619493177387914v9.449122807017543l-4.668421052631579 -8.215399610136453c-2.352046783625731 -4.138791423001949 -7.613840155945418 -5.587329434697856 -11.752631578947367 -3.235282651072125 -4.138791423001949 2.3518518518518516 -5.587251461988304 7.613645224171539 -3.235282651072125 11.75243664717349l5.312475633528265 9.348538011695906 -9.34851851851852 -5.312475633528265c-4.138791423001949 -2.3518518518518516 -9.40056530214425 -0.9035087719298245 -11.75251461988304 3.235282651072125s-0.9034307992202728 9.400584795321636 3.2353411306042883 11.752631578947367l8.215302144249513 4.668421052631579h-9.449122807017543c-4.76037037037037 0 -8.619424951267057 3.85906432748538 -8.619424951267057 8.619493177387914 0 4.760428849902533 3.859054580896686 8.619493177387914 8.619424951267057 8.619493177387914h9.449103313840155l-8.215263157894737 4.668421052631579c-4.138791423001949 2.352046783625731 -5.587309941520467 7.613645224171539 -3.235360623781676 11.75243664717349s7.613723196881091 5.587329434697856 11.75251461988304 3.2354775828460034l9.34851851851852 -5.312475633528265 -5.312475633528265 9.348538011695906c-2.351949317738791 4.138791423001949 -0.9035087719298245 9.400584795321636 3.235282651072125 11.75243664717349 4.138791423001949 2.352046783625731 9.400584795321636 0.9035087719298245 11.752631578947367 -3.235282651072125l4.668421052631579 -8.215399610136453v9.449122807017543c0 4.760428849902533 3.85906432748538 8.619493177387914 8.619493177387914 8.619493177387914 4.760428849902533 0 8.619493177387914 -3.85906432748538 8.619493177387914 -8.619493177387914v-9.449122807017543l4.668421052631579 8.215399610136453c2.3518518518518516 4.138791423001949 7.613645224171539 5.587329434697856 11.75243664717349 3.235282651072125 4.138791423001949 -2.3518518518518516 5.587329434697856 -7.613645224171539 3.2354775828460034 -11.75243664717349l-5.312475633528265 -9.348538011695906 9.348538011695906 5.312475633528265c4.138791423001949 2.3518518518518516 9.400389863547757 0.9033138401559454 11.75243664717349 -3.2354775828460034 2.352046783625731 -4.138791423001949 0.9035087719298245 -9.400389863547757 -3.235282651072125 -11.75243664717349l-8.215399610136453 -4.668421052631579h9.449122807017543c4.760428849902533 0 8.619493177387914 -3.85906432748538 8.619493177387914 -8.619493177387914 0 -4.760428849902533 -3.85906432748538 -8.619493177387914 -8.619493177387914 -8.619493177387914h-9.449122807017543l8.215399610136453 -4.668421052631579c4.138791423001949 -2.352046783625731 5.587329434697856 -7.613840155945418 3.235282651072125 -11.752631578947367 -2.3518518518518516 -4.138791423001949 -7.613645224171539 -5.587134502923976 -11.75243664717349 -3.235282651072125l-9.348538011695906 5.312475633528265 5.312475633528265 -9.348538011695906c2.3518518518518516 -4.138791423001949 0.9033138401559454 -9.400584795321636 -3.2354775828460034 -11.75243664717349 -4.138791423001949 -2.352046783625731 -9.400389863547757 -0.9035087719298245 -11.75243664717349 3.235282651072125l-4.668421052631579 8.215399610136453v-9.449122807017543Z" stroke-width="1"></path><path stroke="#000000" stroke-linecap="round" stroke-width="1" d="M57.128460038986354 73.2943469785575c0 1.9378167641325537 -1.571150097465887 3.508771929824561 -3.5093567251461986 3.508771929824561 -1.9101364522417152 0 -3.463742690058479 -1.525925925925926 -3.508187134502924 -3.4251461988304093"></path><path stroke="#000000" stroke-linecap="round" stroke-width="1" d="M50.11091617933723 73.2943469785575c0 1.9378167641325537 -1.571150097465887 3.508771929824561 -3.5093567251461986 3.508771929824561 -1.9101364522417152 0 -3.463742690058479 -1.525925925925926 -3.508187134502924 -3.4251461988304093"></path><path fill="#000000" d="M57.128460038986354 61.59844054580896a2.3391812865497075 2.3391812865497075 0 1 0 4.678362573099415 0 2.3391812865497075 2.3391812865497075 0 1 0 -4.678362573099415 0" stroke-width="1"></path><path fill="#000000" d="M38.41500974658869 61.59844054580896a2.3391812865497075 2.3391812865497075 0 1 0 4.678362573099415 0 2.3391812865497075 2.3391812865497075 0 1 0 -4.678362573099415 0" stroke-width="1"></path></g><defs><clipPath id="a"><path fill="#ffffff" d="M50.013450292397664 0s49.902534113060426 0 49.902534113060426 49.902534113060426 0 49.902534113060426 -49.902534113060426 49.902534113060426 -49.902534113060426 0 -49.902534113060426 -49.902534113060426 0 -49.902534113060426 49.902534113060426 -49.902534113060426" stroke-width="1"></path></clipPath></defs></svg>